<svg xmlns="http://www.w3.org/2000/svg" viewBox="0 0 588.23 672.21"><defs><style>.cls-1{fill:#f2f3f4;}</style></defs><title>trash</title><g id="Layer_2" data-name="Layer 2"><g id="Layer_1-2" data-name="Layer 1"><path class="cls-1" d="M293.87,168.11q123.23,0,246.46-.1c4.53,0,5.7,1,5.39,5.64-3.11,47.21-6,94.43-8.89,141.65q-3.22,52.38-6.38,104.76-4.26,68.58-8.61,137.16c-1.12,18-2.33,35.91-3.27,53.88-1.49,28.69-21.88,53.63-49.05,59.59a71.49,71.49,0,0,1-15.38,1.45c-106.82,0-213.63-.2-320.45.08-35.67.09-62-26.7-64.23-61.83q-4.38-68.83-8.65-137.66c-2.5-40.4-4.89-80.81-7.39-121.22q-4.25-68.58-8.61-137.16c-.85-13.63-1.4-27.29-2.51-40.9-.36-4.42.63-5.45,5.11-5.44Q170.64,168.22,293.87,168.11Z"/><path class="cls-1" d="M294,126.11q-125.24,0-250.48,0c-17.92,0-32.09-6.86-39.53-23.5C-6.9,78.19,4.66,46.42,35.8,42.69a84.6,84.6,0,0,1,10-.56c39.16,0,78.33-.09,117.49.08,3.75,0,5.63-1.11,7.08-4.45,2.18-5,4.78-9.87,7.36-14.71C186,7.57,199.46.3,216.5.21q77.49-.41,155,0c17.71.09,31.33,8,39.57,24.11,1.44,2.81,3.39,5.49,4.2,8.47,2.25,8.25,7.53,9.62,15.48,9.53,37.83-.46,75.66-.22,113.49-.2,13.79,0,26.06,3.78,34.77,15.21,10.55,13.84,11.72,29.34,5.21,44.81-6.61,15.72-19.74,23.77-36.69,23.83-73,.25-146,.12-219,.14Z"/></g></g></svg>